<svg xmlns="http://www.w3.org/2000/svg" viewBox="0 0 64 64">
  <!-- Background circle -->
  <circle cx="32" cy="32" r="32" fill="#2c3e50"/>
  
  <!-- ALT Text -->
  <path d="M18.5 24L14 40h4l1.1-4h5.8L26 40h4L25.5 24h-7zm3.5 4l1.8 6h-3.6L22 28z" fill="white"/>
  
  <!-- G Letter -->
  <path d="M42 24c-4.4 0-8 3.6-8 8s3.6 8 8 8c2.2 0 4.2-0.9 5.6-2.4l-2.8-2.8c-0.7 0.7-1.7 1.2-2.8 1.2-2.2 0-4-1.8-4-4s1.8-4 4-4c1.1 0 2.1 0.5 2.8 1.2l2.8-2.8C46.2 24.9 44.2 24 42 24z" fill="#3498db"/>
  
  <!-- Network line connecting letters -->
  <path d="M30 32h4" stroke="#3498db" stroke-width="2" stroke-linecap="round"/>
</svg>
